<?xml version="1.0" standalone="no"?>
<!DOCTYPE svg PUBLIC "-//W3C//DTD SVG 20010904//EN"
 "http://www.w3.org/TR/2001/REC-SVG-20010904/DTD/svg10.dtd">
<svg version="1.0" xmlns="http://www.w3.org/2000/svg"
 width="512.000000pt" height="512.000000pt" viewBox="0 0 512.000000 512.000000"
 preserveAspectRatio="xMidYMid meet">
<metadata>
Created by potrace 1.16, written by Peter Selinger 2001-2019
</metadata>
<g transform="translate(0.000000,512.000000) scale(0.100000,-0.100000)"
fill="#000000" stroke="none">
<path d="M2240 5105 c-389 -48 -766 -188 -1091 -404 -504 -335 -871 -825
-1043 -1395 -41 -132 -81 -333 -96 -468 -13 -125 -13 -431 0 -556 108 -1014
825 -1880 1804 -2176 132 -41 333 -81 468 -96 125 -13 431 -13 556 0 592 63
1141 332 1563 766 289 299 494 645 613 1038 74 243 106 468 106 746 0 209 -10
324 -46 505 -181 920 -867 1676 -1768 1949 -132 41 -333 81 -468 96 -131 14
-469 11 -598 -5z m608 -421 c774 -102 1453 -648 1724 -1386 90 -247 129 -468
129 -738 0 -345 -72 -653 -221 -949 -320 -639 -930 -1078 -1632 -1176 -149
-21 -428 -21 -577 0 -357 50 -693 188 -981 402 -470 351 -775 862 -855 1435
-21 149 -21 428 0 577 98 700 538 1312 1175 1631 378 189 810 261 1238 204z"/>
<path d="M2200 3888 c-129 -20 -243 -108 -303 -236 l-32 -67 0 -1025 0 -1025
32 -67 c81 -172 248 -263 433 -237 136 20 129 14 674 557 274 273 513 520 531
547 46 72 65 137 65 225 0 88 -19 153 -66 225 -44 69 -1007 1026 -1064 1058
-76 43 -177 60 -270 45z m532 -1780 l-452 -453 0 905 0 905 452 -453 453 -452
-453 -452z"/>
</g>
</svg>
